<svg width="512" height="512" viewBox="0 0 135.467 135.467" xmlns="http://www.w3.org/2000/svg"><g style="font-size:116.71px;font-family:FZKai-Z03;-inkscape-font-specification:'FZKai-Z03, Normal';fill:#6c71c4;stroke-width:.291775;fill-opacity:1"><path d="M68.222 18.148q6.382-1.367 12.765 5.927 0 .456-.456 1.368-2.28 5.47-3.191 25.986l13.677-3.191q2.735-10.486 0-15.5-.456-.913 0-1.369 9.118.912 10.485 5.927l-.911 1.824q-2.28 3.647-5.015 12.309-2.28 5.927-5.471 7.294-1.824-.456 0-7.294L77.34 54.62l-.912 15.5q3.191-.911 6.383-2.735 3.19-1.367 5.014-.911 8.207 3.647 7.75 5.47-5.014 5.015-8.661 13.221-2.736 5.471-5.015 9.118 12.765 11.854 34.192 15.501 4.103.912 4.56 1.824 0 .911-3.648 2.28-12.765 2.734-19.148 1.823-4.559-1.368-19.603-16.869-9.574 9.574-25.53 11.398-6.383.456-6.84 0-.455-.456 4.56-2.28 14.589-4.103 23.25-13.677-5.014-5.47-13.676-9.573-3.648-1.824-3.648-2.736 3.648-4.103 20.516 9.118 7.75-12.31 6.382-18.692-.911-.911-10.485 2.28-9.574 3.647-12.31 3.647-4.103-.456-6.382-2.28-1.368-1.367 2.28-1.823h.911q8.206-.912 14.133-2.735l.912-15.501q-11.398 3.647-16.412 7.294-.912.912-1.824.912-2.28-.912-1.824-6.838l.456-.912q3.192-3.191 3.647-6.839.912-4.103-1.367-7.75-.912-1.368.456-1.823 4.559.911 6.838 4.558 0 .912-.912 5.015-.456 3.192-.911 5.927l11.853-2.735q1.368-25.987-3.647-32.825-.456-.912-.456-1.824ZM40.868 29.09q9.118 2.28 9.574 5.47-.456 1.368-2.28 3.192-4.559 5.47-6.382 14.133 0 .456.911 1.368 2.28 2.735 1.824 3.19l-2.28.457q-7.75 1.823-15.044 4.103l-3.647 14.133q6.382-1.824 10.941-4.103 1.824-.912 2.736-.912 7.75 2.735 8.662 6.838 0 .456-.912.912-2.735 2.735-3.647 13.221-1.824 24.163-12.31 26.442-.911 0-1.823-2.28-2.28-4.558-5.015-8.205-3.647-3.648-.456-2.736 1.368.456 1.824.456 5.015.912 5.926.456 3.648-3.191 6.383-16.412 1.368-10.486-.912-12.766-5.015-1.823-15.044 5.927-2.28 1.824-2.736 1.824-2.735-.912-2.28-6.383.457-.912 1.368-1.823 3.192-2.736 4.56-8.207 1.367-5.47-.912-9.573-.912-1.824-.456-2.28 1.367-1.368 5.47.912 1.824.912 2.28.912 8.206-1.824 9.118-3.648.912-.911 1.368-5.926.911-5.927 1.823-10.942-4.103 1.368-9.118 2.736-4.103 1.367-5.015 1.367-4.103-.456-5.47-2.28-.456-1.367 3.647-2.279 9.574-1.367 15.044-5.926 1.368-1.368 2.28-1.368z" style="fill:#6c71c4;fill-opacity:1" aria-label="弢"/></g></svg>