<svg width="10mm" height="10mm" viewBox="0 0 10 10" xmlns="http://www.w3.org/2000/svg"><path d="M5.035 1.403q.463-.1.926.43 0 .033-.033.1-.165.396-.231 1.884l.992-.231q.199-.761 0-1.125-.033-.066 0-.099.662.066.76.43l-.065.132q-.166.265-.364.893-.166.43-.397.53-.132-.034 0-.53l-.926.232-.066 1.124q.231-.066.463-.198.231-.1.364-.066.595.264.562.396-.364.364-.629.96-.198.396-.363.661.926.86 2.48 1.125.298.066.33.132 0 .066-.264.165-.926.199-1.389.132-.33-.099-1.422-1.223-.694.694-1.852.827-.463.033-.496 0-.033-.033.33-.166 1.059-.297 1.687-.992-.363-.397-.992-.694-.264-.133-.264-.199.264-.298 1.488.662.562-.893.463-1.356-.066-.067-.76.165-.695.265-.894.265-.297-.034-.463-.166-.099-.1.166-.132h.066q.595-.066 1.025-.199l.066-1.124q-.827.265-1.19.53-.067.065-.133.065-.165-.066-.132-.496l.033-.066q.231-.232.265-.496.066-.298-.1-.562-.066-.1.033-.133.331.067.496.331 0 .066-.066.364-.033.231-.066.43l.86-.199q.1-1.885-.264-2.38-.034-.067-.034-.133Zm-1.984.794q.662.165.695.397-.033.099-.166.231-.33.397-.463 1.025 0 .033.066.1.166.198.133.231l-.166.033q-.562.132-1.091.298l-.265 1.025q.463-.132.794-.298.132-.066.198-.066.563.199.629.496 0 .033-.066.066-.199.199-.265.96-.132 1.752-.893 1.918-.066 0-.132-.166-.165-.33-.364-.595-.265-.264-.033-.198.1.033.132.033.364.066.43.033.265-.232.463-1.19.1-.761-.066-.927-.364-.132-1.091.43-.166.132-.199.132-.198-.066-.165-.463.033-.066.1-.132.23-.198.33-.595.1-.397-.066-.695-.066-.132-.033-.165.099-.1.397.066.132.066.165.066.595-.132.661-.264.066-.067.1-.43.066-.43.132-.794-.298.1-.662.198-.297.1-.363.1-.298-.034-.397-.166-.033-.1.264-.165.695-.1 1.092-.43.099-.1.165-.1Z" aria-label="弢" style="font-size:8.46667px;font-family:FZKai-Z03;-inkscape-font-specification:'FZKai-Z03, Normal';fill:#268bd2;stroke-width:.264583"/></svg>